<?xml version="1.0" encoding="UTF-8"?>
<svg id="Layer_1" xmlns="http://www.w3.org/2000/svg" version="1.1" viewBox="0 0 1000 1000">
  <!-- Generator: Adobe Illustrator 30.1.0, SVG Export Plug-In . SVG Version: 2.1.1 Build 136)  -->
  <path d="M103.29,308.04h24.69l-58.61,167.32h-24.69l58.61-167.32Z"/>
  <path d="M159.94,308.04h24.69l-58.61,167.32h-24.69l58.61-167.32Z"/>
  <path d="M270.24,364.17h24.51v21.31h-23.8v72.11h-27.71v-72.11h-14.74v-21.31h14.74v-4.26c0-21.49,13.14-35.52,36.94-35.52,7.82,0,15.99,1.6,21.14,5.15l-7.28,20.07c-3.02-2.13-6.93-3.37-11.19-3.37-8.17,0-12.61,4.44-12.61,13.85v4.09Z"/>
  <path d="M300.26,409.82c0-28.77,22.2-49.2,52.58-49.2s52.4,20.43,52.4,49.2-22.02,49.2-52.4,49.2-52.58-20.43-52.58-49.2ZM377.16,409.82c0-16.52-10.48-26.46-24.33-26.46s-24.51,9.95-24.51,26.46,10.66,26.46,24.51,26.46,24.33-9.95,24.33-26.46Z"/>
  <path d="M416.59,409.82c0-28.77,22.2-49.2,52.57-49.2s52.4,20.43,52.4,49.2-22.02,49.2-52.4,49.2-52.57-20.43-52.57-49.2ZM493.5,409.82c0-16.52-10.48-26.46-24.33-26.46s-24.51,9.95-24.51,26.46,10.66,26.46,24.51,26.46,24.33-9.95,24.33-26.46Z"/>
  <path d="M601.67,452.98c-5.68,4.09-14.03,6.04-22.56,6.04-22.56,0-35.7-11.55-35.7-34.28v-39.25h-14.74v-21.31h14.74v-23.27h27.71v23.27h23.8v21.31h-23.8v38.9c0,8.17,4.44,12.61,11.9,12.61,4.08,0,8.17-1.24,11.19-3.55l7.46,19.54Z"/>
  <path d="M721.38,409.82c0,30.02-20.78,49.2-47.6,49.2-12.79,0-23.09-4.09-30.02-12.43v11.01h-26.46v-131.79h27.71v46.36c7.1-7.82,16.87-11.55,28.77-11.55,26.82,0,47.6,19.18,47.6,49.2ZM693.31,409.82c0-16.52-10.48-26.46-24.33-26.46s-24.33,9.95-24.33,26.46,10.48,26.46,24.33,26.46,24.33-9.95,24.33-26.46Z"/>
  <path d="M822.8,403.07v54.53h-25.93v-11.9c-5.15,8.7-15.1,13.32-29.13,13.32-22.38,0-35.7-12.43-35.7-28.95s11.9-28.6,41.03-28.6h22.02c0-11.9-7.1-18.83-22.02-18.83-10.12,0-20.6,3.37-27.53,8.88l-9.95-19.36c10.48-7.46,25.93-11.55,41.21-11.55,29.13,0,46,13.5,46,42.45ZM795.09,427.4v-9.77h-19.01c-12.97,0-17.05,4.8-17.05,11.19,0,6.93,5.86,11.55,15.63,11.55,9.24,0,17.23-4.26,20.43-12.97Z"/>
  <path d="M847.84,325.81h27.71v131.79h-27.71v-131.79Z"/>
  <path d="M901.3,325.81h27.71v131.79h-27.71v-131.79Z"/>
  <path d="M261.18,538.94v131.79h-26.46v-11.01c-6.93,8.35-17.05,12.43-29.84,12.43-27,0-47.78-19.18-47.78-49.2s20.78-49.2,47.78-49.2c11.72,0,21.67,3.73,28.6,11.55v-46.36h27.71ZM234.01,622.96c0-16.52-10.66-26.47-24.33-26.47s-24.51,9.95-24.51,26.47,10.66,26.46,24.51,26.46,24.33-9.95,24.33-26.46Z"/>
  <path d="M371.3,616.21v54.53h-25.93v-11.9c-5.15,8.7-15.1,13.32-29.13,13.32-22.38,0-35.7-12.43-35.7-28.95s11.9-28.6,41.03-28.6h22.02c0-11.9-7.1-18.83-22.02-18.83-10.12,0-20.6,3.37-27.53,8.88l-9.95-19.36c10.48-7.46,25.93-11.55,41.21-11.55,29.13,0,46,13.5,46,42.45ZM343.59,640.54v-9.77h-19.01c-12.97,0-17.05,4.8-17.05,11.19,0,6.93,5.86,11.55,15.63,11.55,9.24,0,17.23-4.26,20.43-12.97Z"/>
  <path d="M457.97,666.12c-5.68,4.08-14.03,6.04-22.56,6.04-22.56,0-35.7-11.54-35.7-34.28v-39.25h-14.74v-21.31h14.74v-23.27h27.71v23.27h23.8v21.31h-23.8v38.9c0,8.17,4.44,12.61,11.9,12.61,4.08,0,8.17-1.24,11.19-3.55l7.46,19.54Z"/>
  <path d="M558.15,616.21v54.53h-25.93v-11.9c-5.15,8.7-15.1,13.32-29.13,13.32-22.38,0-35.7-12.43-35.7-28.95s11.9-28.6,41.03-28.6h22.02c0-11.9-7.1-18.83-22.02-18.83-10.12,0-20.6,3.37-27.53,8.88l-9.95-19.36c10.48-7.46,25.93-11.55,41.21-11.55,29.13,0,46,13.5,46,42.45ZM530.44,640.54v-9.77h-19.01c-12.97,0-17.05,4.8-17.05,11.19,0,6.93,5.86,11.55,15.63,11.55,9.24,0,17.23-4.26,20.43-12.97Z"/>
  <path d="M576.44,654.75c0-10.3,7.64-17.05,17.23-17.05s17.23,6.75,17.23,17.05-7.64,17.41-17.23,17.41-17.23-7.28-17.23-17.41Z"/>
  <path d="M621.37,622.96c0-28.77,22.2-49.2,52.57-49.2s52.4,20.43,52.4,49.2-22.02,49.2-52.4,49.2-52.57-20.43-52.57-49.2ZM698.28,622.96c0-16.52-10.48-26.47-24.33-26.47s-24.51,9.95-24.51,26.47,10.66,26.46,24.51,26.46,24.33-9.95,24.33-26.46Z"/>
  <path d="M804.14,573.76v25.58c-2.31-.18-4.09-.36-6.22-.36-15.27,0-25.4,8.35-25.4,26.64v45.11h-27.71v-95.56h26.47v12.61c6.75-9.24,18.12-14.03,32.86-14.03Z"/>
  <path d="M918.35,575.18v79.57c0,35.52-19.18,51.86-53.64,51.86-18.12,0-35.7-4.44-46.89-13.14l11.01-19.89c8.17,6.57,21.49,10.83,33.75,10.83,19.54,0,28.06-8.88,28.06-26.11v-4.08c-7.28,7.99-17.76,11.9-30.2,11.9-26.46,0-47.78-18.29-47.78-46.18s21.31-46.18,47.78-46.18c13.32,0,24.33,4.44,31.62,13.68v-12.26h26.29ZM890.99,619.94c0-14.03-10.48-23.45-25.04-23.45s-25.22,9.41-25.22,23.45,10.66,23.45,25.22,23.45,25.04-9.41,25.04-23.45Z"/>
</svg>